<svg xmlns="http://www.w3.org/2000/svg" viewBox="0 0 111.96 66.19"><defs><style>.cls-1{fill:#fff;}</style></defs><title>backspace</title><g id="Layer_2" data-name="Layer 2"><g id="Layer_1-2" data-name="Layer 1"><path id="Delete" class="cls-1" d="M43.78,20.32,56.56,33.1,43.78,45.87a3.28,3.28,0,0,0,4.64,4.64L61.2,37.74,74,50.52a3.28,3.28,0,0,0,4.64-4.64L65.84,33.1,78.61,20.32A3.28,3.28,0,0,0,74,15.68L61.19,28.46,48.42,15.68a3.28,3.28,0,1,0-4.64,4.64m-35,7.45L28,8.54a7.4,7.4,0,0,1,5-2H97.8a7.69,7.69,0,0,1,7.59,7.59V52a7.68,7.68,0,0,1-7.58,7.59H33a7.48,7.48,0,0,1-5.12-2.05L8.76,38.44a7.56,7.56,0,0,1,0-10.67M4.12,43.07,23.34,62.29A14.09,14.09,0,0,0,33,66.19H97.8A14.16,14.16,0,0,0,112,52V14.15A14.17,14.17,0,0,0,97.8,0H33A14,14,0,0,0,23.4,3.83L4.12,23.13a14.13,14.13,0,0,0,0,19.95"/></g></g></svg>