<svg xmlns="http://www.w3.org/2000/svg" viewBox="0 0 264 194"><defs><style>.cls-1{fill:#fff;}</style></defs><title>barcode</title><g id="Layer_2" data-name="Layer 2"><g id="Layer_1-2" data-name="Layer 1"><g id="Group"><path id="Shape" class="cls-1" d="M31.57,0C14.8,0,0,12.22,0,28.53V165.47C0,181.78,14.8,194,31.57,194H232.43C249.2,194,264,181.78,264,165.47V31.38C263.51,12.38,249.46.21,232.43,0Zm0,17.12H232.43c9.74.06,14.27,6.62,14.35,14.26V165.47c0,5.81-5.67,11.41-14.35,11.41H31.57c-8.68,0-14.35-5.6-14.35-11.41V28.53C17.22,22.72,22.89,17.12,31.57,17.12ZM43,48.5v97H60.26v-97Zm23,0v97h5.74v-97Zm11.48,0v97h5.74v-97Zm17.22,0v97h17.22v-97Zm23,0v97h5.74v-97Zm11.48,0v97h17.22v-97Zm23,0v97h5.74v-97Zm17.22,0v97H175v-97Zm11.48,0v97H198v-97Zm23,0v97h5.74v-97Zm11.48,0v97H221v-97Z"/></g></g></g></svg>