<svg xmlns="http://www.w3.org/2000/svg" viewBox="0 0 218 218"><defs><style>.cls-1{fill:none;stroke:#fff;stroke-width:18px;}.cls-2{fill:#fff;}</style></defs><title>icon-wifi</title><g id="Layer_2" data-name="Layer 2"><g id="Layer_1-2" data-name="Layer 1"><circle id="Oval-2" class="cls-1" cx="109" cy="109" r="100"/><g id="Page-1"><path id="Fill-1" class="cls-2" d="M107.5,113a18.69,18.69,0,0,0-16,8.8,3.38,3.38,0,0,0,1.16,4.7,3.52,3.52,0,0,0,4.79-1.13,11.89,11.89,0,0,1,20.08,0,3.53,3.53,0,0,0,4.79,1.13,3.38,3.38,0,0,0,1.16-4.7,18.69,18.69,0,0,0-16-8.8"/><path id="Fill-3" class="cls-2" d="M107,95a32.81,32.81,0,0,0-26.26,13.2,3.66,3.66,0,0,0,.59,5,3.39,3.39,0,0,0,4.87-.6,25.92,25.92,0,0,1,41.61,0,3.42,3.42,0,0,0,2.73,1.37,3.38,3.38,0,0,0,2.14-.77,3.66,3.66,0,0,0,.59-5A32.81,32.81,0,0,0,107,95"/><path id="Fill-5" class="cls-2" d="M145.17,94.86C135.61,82.87,121.7,76,107,76S78.39,82.87,68.83,94.86a3.91,3.91,0,0,0,.38,5.25,3.32,3.32,0,0,0,4.9-.41,41.39,41.39,0,0,1,65.77,0,3.38,3.38,0,0,0,2.64,1.3,3.33,3.33,0,0,0,2.26-.89,3.91,3.91,0,0,0,.39-5.25"/><path id="Fill-8" class="cls-2" d="M106.5,131a6.5,6.5,0,1,1-6.5,6.5,6.5,6.5,0,0,1,6.5-6.5"/></g></g></g></svg>