<svg xmlns="http://www.w3.org/2000/svg" viewBox="0 0 153.1 150.35"><defs><style>.cls-1{fill:#a41f35;}.cls-2{fill:#fff;}.cls-3{fill:#ef7622;}.cls-4{fill:none;stroke:#0e0846;stroke-linecap:round;stroke-linejoin:round;stroke-width:4.7px;}.cls-5{fill:#0e0846;}</style></defs><title>logo--over</title><g id="Layer_2" data-name="Layer 2"><g id="Layer_1-2" data-name="Layer 1"><g id="logo"><polygon id="Shape" class="cls-1" points="73 92.25 62.6 97.25 59.4 94.85 59.8 98.95 50.5 103.05 50.5 103.15 40.7 107.55 39.9 107.55 38.4 109.05 28.2 113.75 12.1 114.95 5.3 109.75 0 48.45 6 42.05 20.4 50.05 26.3 54.45 26.9 55.05 36.1 60.15 43.5 54.35 48 57.75 47.4 50.35 59.2 41.25 59.2 41.15 63.6 37.75 73 46.15 73.1 47.35 80.4 53.95 86.5 51.25 87.9 54.75 88.6 50.45 100.4 45.15 100.6 46.75 103.9 43.25 117.3 37.95 119.4 39.45 121.4 35.95 133.3 30.85 133.4 30.75 146.2 25.15 153.1 103.65 135.5 105.25 125.1 102.15 115.3 99.25 115.1 96.85 112 97.95 101.2 95.15 98.9 93.45 98.3 93.85 85.6 89.95 85 88.55 84.7 89.55 80.7 88.55 75.4 91.25 75.1 89.95 73 92.25"/><path id="Shape-2" data-name="Shape" class="cls-2" d="M84,80.35l-3.3-.8-4.8,2.5-2.8-31.8,6.8,6.2,5.4-2.3L91,67.75,92.3,71l.4,1,.8,1.9-.3-1.5-.3-1.5-.7-3.3L90.8,52l7.8-3.5,3.3,37.6-12.9-4-4.5-9.4c-.1-.3-.2-.5-1.4-3.3l-.7-1.7L81.7,66l.4,1.5.4,2a17.86,17.86,0,0,1,.7,3.5Zm-46.7-2.1L40.8,77l-.6-6.8-3.7-1.1Zm1.8,21.5-8.8,3.9-4.1-46.6,10,5.5L43.5,57l5,3.7,1.4,15.8-3.4,3.8,4,2.9,1,11-8.8,3.9-1.2-13.9-3.6,1.4Zm69.8-11.2-5-3.8-3.1-35.2,4.2-4.5,11.9-4.7,5,3.7,1.2,13.3-9,1.9-1-10.9-3.2,1.5,2.9,33.3,3.5,1.2-1-11.1,9-1.9,1.4,16-4.2,4.5Zm29.1,8.5-9.4-2.8-5-56.9,8.8-3.7,2.6,29.6,3.3-.3-2.7-30.8,8.8-3.8,6.3,72.6-9.4-2.7-2.4-27.1-3.3.3ZM12.3,112.45l-5-3.8L2.1,49.15l4.2-4.5,12.9,7.1,5,3.7,1.3,15.2-9,1.9-1.2-13.4-3.5-2,4.1,45.1,3.3-1.8-1.1-12.2,9-1.9,1.4,16.1L24.3,107Zm45.3-21.7L52.7,87l-3.2-35.6,8.6-6.6,3.1,35.4,3.4-1.8-3.2-36.2,2.1-1.6,7.5,6.7,2.8,33.1L69.6,85Z"/><path id="Shape-3" data-name="Shape" class="cls-1" d="M59.7,98.85l-.3-4a8.27,8.27,0,0,1-1.2-3c-.2-1.8.1-3.6,1.3-4.4,2.6-1.8,6.5-1.4,11.1-3,4-1.4,7.7-4.3,12.7-4.8,5.3-.6,10.8,3.9,18.5,7.6,3,1.5,5.3,2.5,7.2,5.5s2,3.9,1.7,8.8c-1.5,14.3-14.3,18.7-19.7,19.1a65.23,65.23,0,0,1-11.5-.2s-8.7.5-14.8-1.4-9.8-9.3-11.4-11.4c-.9-1.1-4.1-4.1-4.1-4.1ZM76,25.05c7.9-.7,8.9,7.6,8.9,7.6s.4-3.8,7.3-4.9,10.3,6.9,11.2,9.1a54.23,54.23,0,0,1,1.8,5.8l-1.7,1-4.2,4.6c1.1,11.1-.3,14.8-5.6,16-4.6,1.1-7.5-1.9-9.3-6.7.1,3.5-1.1,7.6-5.1,8.7-5.1,1.3-8.3-2.6-9.3-5.8-2.5-7.5-3.6-8.3-4-13.2-1.4-19.8,5.6-21.9,10-22.2Zm-15.3,15-2.5,2.5a30.64,30.64,0,0,1-3.2,5.9,35.79,35.79,0,0,1,3.4,12.9c0,5.7-4.1,8.2-7.6,7.4-3.9-.8-5.7-4.2-6.6-6.1s-1,1.8-5.1,2.7c-3.8.8-8-1.9-8.5-8.3s6.4-9.5,9.6-7.1c-1-2.4,2.2-6.4,3.5-8.3s3.4-7,8.3-7.7,7,3.8,8.7,6.1Z"/><path id="Shape-4" data-name="Shape" class="cls-3" d="M80.5,39.75c-.4-.8-.8-2.5-.5-2.9s-.4-1.7-.4-1.7l1,.5-.5-2.9,1.3,1.6a13.41,13.41,0,0,0-.8-3.3,3.15,3.15,0,0,1,1.8,3,39.38,39.38,0,0,0-1.9,5.7Zm17.5-6a11.55,11.55,0,0,1,0,7.4v-.1c-.1.5-.9,2.4-1.9,2.9,0,0,.9-1.7.7-2s-.9-.1-.9-.1a7,7,0,0,0,1.3-4.2c-.3-1.7.2-3.5.8-3.9ZM90.8,62h-.1a2.09,2.09,0,0,1-.6-.4l-.7-.5a1,1,0,0,0,.2.5,7.85,7.85,0,0,1-3.7-4.8,34.75,34.75,0,0,1-1-6.2,45.54,45.54,0,0,0-1.3-5.9c-.2-.8-.9-3,1.5-9.1.9,2.7,2.4,4.8,4.9,4.4a3.79,3.79,0,0,1,2.5.4,1.38,1.38,0,0,1,.4.3c-.1.1-.1.3-.2.3s.2,0,.5,0l.1.1c-.2.2-.3.4-.4.5l-.2.1c0,.1.4,0,.8-.1a3.19,3.19,0,0,0-.6.7c-.1.1.2.1.5.1a3.08,3.08,0,0,0-.5.7h.6c-.2.3-.4.7-.5.8s.3.1.7,0a5.9,5.9,0,0,0-.4.8c0,.1.2,0,.5,0a5.91,5.91,0,0,0-.5.8h.5c-.2.3-.3.7-.4.8v.1a1.75,1.75,0,0,0,.5-.1,2.3,2.3,0,0,0-.3.9c0,.1.3,0,.6-.1v.1a7.23,7.23,0,0,1-.4.7h.3a5.1,5.1,0,0,1-.5,1.4c.4,0,1-.7,1.8-.2a1.73,1.73,0,0,0-.3.4,2.07,2.07,0,0,0,.8.2,1.54,1.54,0,0,0-.6.4,8.12,8.12,0,0,0,1,.5c-.3.1-.6.3-.7.3a4.43,4.43,0,0,0,.9.5,3.93,3.93,0,0,1-.6.2,9.25,9.25,0,0,0,.9.5,4.42,4.42,0,0,1-.8.3,6.13,6.13,0,0,0,.8.5,3.93,3.93,0,0,1-.6.2l.7.7h-.6c-.1,0,.3.4.6.7h-.6c-.1,0,.4.4.9.7a3.1,3.1,0,0,0-1,.2,7.25,7.25,0,0,0,1.1.9h-1c-.1,0,.4.4,1,.8-.4,0-.7-.1-1-.1l-.2-.1.1.1h-.1a8.21,8.21,0,0,0,1.1.9,6.53,6.53,0,0,0-1.1-.2,3.34,3.34,0,0,0,.7,1c-.4-.2-.7-.3-.9-.4h-.1a7.13,7.13,0,0,0,.7,1.1,4.91,4.91,0,0,0-1-.4,2.93,2.93,0,0,0,.6,1l-1-.5-.1-.1a7.92,7.92,0,0,0,.6,1c-.4-.2-1-.4-1.2-.5s.4.7.9,1.2c-.4-.2-.9-.4-1.3-.6l-.3-.2c-.1,0,.2.5.5.9-.3-.1-.7-.3-1-.4l-.3-.4.1.1c-.2,0,.2.5.7,1-.5-.2-1.1-.5-1.4-.6l-.2-.1c-.1,0,.3.6.8,1.1-.5-.3-1.1-.6-1.4-.8l-.1-.1a2.5,2.5,0,0,0,.4.8,6.66,6.66,0,0,1-1.2-.6l-.2-.1c-.2,0,.1.5.4.9Zm-.8-9.8a7.71,7.71,0,0,1,4.7,1.2c-2.9-4.4-8.7-2.1-8.3.9a7.85,7.85,0,0,1,3.6-2.1Zm-10-3.3a3.35,3.35,0,0,0-2.8,1.7,4.64,4.64,0,0,1,4,1.2.31.31,0,0,0-.1.2,1,1,0,0,0,.4.1l.2.2a1.38,1.38,0,0,0-.4.3l.8.4.1.1a1.63,1.63,0,0,0-.6.3,4.54,4.54,0,0,1,.9.5,3.93,3.93,0,0,1-.6.2s.4.2.9.5a4.42,4.42,0,0,1-.8.3,6.13,6.13,0,0,0,.8.5,2.54,2.54,0,0,1-.7.2,3.73,3.73,0,0,0,.8.6h-.6c-.1,0,.3.4.6.7h-.6c-.1,0,.4.4.9.7a3.1,3.1,0,0,0-1,.2s.5.5,1,.9H82.1l1,.8c-.4,0-.7-.1-.9-.1l-.2-.1.1.1H82a8.22,8.22,0,0,0,1.1.9,6.53,6.53,0,0,0-1.1-.2,4.48,4.48,0,0,0,.7,1c-.4-.2-.8-.3-.9-.4h-.1a4.48,4.48,0,0,0,.7,1c-.5-.1-1-.3-1.2-.3a4.48,4.48,0,0,0,.7,1l-1-.5h-.1a7.92,7.92,0,0,0,.6,1c-.4-.2-1-.4-1.2-.5h-.1a6.61,6.61,0,0,0,.9,1.2,13.39,13.39,0,0,1-1.2-.6l-.3-.2c-.1,0,.2.5.5.9-.3-.1-.7-.3-1-.4l-.4-.2.1.1c-.2,0,.2.5.7,1-.5-.2-1.1-.5-1.4-.6h-.1c-.1,0,.3.6.7,1-.5-.3-1.1-.6-1.4-.8l-.1-.1a2.5,2.5,0,0,0,.4.8,6.66,6.66,0,0,1-1.2-.6l-.2-.1a4.43,4.43,0,0,0,.6,1,5.94,5.94,0,0,0-.8-.4l-.7-.5a3.69,3.69,0,0,0,.4.9c-4.2-1.3-5.2-6.9-5.3-7.5a19.69,19.69,0,0,0-1.5-5.5,18.84,18.84,0,0,1-1.6-5.2,25.56,25.56,0,0,1,.3-6.2c.2-1.4.3-4.7.6-6,.7,3.4.1,4.2,1,4.8.6-6.3,2.3,1.2,6.6,1,.7-.1,1.9-.3,2.4-.3a1.09,1.09,0,0,1,.5.1c-.3.1-.5.1-.4.1l.8.6a3,3,0,0,0-.6.3,6.13,6.13,0,0,0,.8.5c-.4.1-.7.2-.7.2a7.28,7.28,0,0,0,.7.6,7.35,7.35,0,0,0-.8.2l.8.6a3,3,0,0,0-.6.3,6.13,6.13,0,0,0,.8.5c-.4.1-.7.2-.7.2a6.13,6.13,0,0,0,.8.5,2.49,2.49,0,0,0-.7.3,4.43,4.43,0,0,0,.9.5,5.2,5.2,0,0,1-.5.3,7.76,7.76,0,0,1,.7.4,5.2,5.2,0,0,1-.5.3,4,4,0,0,0,.9.3,2.41,2.41,0,0,0-.8.3s.5.2.9.4a2.49,2.49,0,0,0-.7.3,6.13,6.13,0,0,0,.8.5c-.4.1-.7.2-.7.2a7.28,7.28,0,0,0,.7.6Zm-7.9,9.8a4.62,4.62,0,0,1,3-3.3c2.4-.5,4.5.1,6.6,3.2-1.1-5-5.1-5.3-6.5-4.9-1,.3-4.1,1.1-3.1,5Zm31.4-17.4.1.2a3.94,3.94,0,0,1-2.5,1.3,1.8,1.8,0,0,1-1.7-1.1c1-1.4,1.4-4.7,1.3-6.4a7.17,7.17,0,0,1,1,2.9c0,.6.1,1.1.4,1.3l-.5.5h.6c-.3.3-.5.6-.6.7s.3.1.7,0c-.3.3-.5.6-.6.7s1.2.2,1.8-.1ZM56.6,59h-.7a10.27,10.27,0,0,1,1,.7l-1,.2a12.5,12.5,0,0,0,1,.9H55.8s.5.4,1.1.8a9.4,9.4,0,0,0-1.2-.1,8.21,8.21,0,0,0,1.1.9l-1.2-.2a10.27,10.27,0,0,0,.7,1l-1-.4a4.48,4.48,0,0,0,.7,1c-.5-.2-1.1-.5-1.1-.4a4.48,4.48,0,0,0,.7,1c-.5-.2-1.1-.5-1.1-.5a7.92,7.92,0,0,0,.6,1c-.5-.3-1.2-.6-1.2-.5a8.66,8.66,0,0,0,.9,1.2,11.12,11.12,0,0,1-1.6-.8c-.1,0,.2.5.5.9a7.37,7.37,0,0,1-1.4-.6c-.1,0,.3.6.7,1a7.14,7.14,0,0,1-1.5-.7,4.79,4.79,0,0,0,.8,1.1,15.12,15.12,0,0,1-1.6-.9,2.5,2.5,0,0,0,.4.8,8.33,8.33,0,0,1-1.4-.7,4.43,4.43,0,0,0,.6,1,7.55,7.55,0,0,1-1.6-1,3.52,3.52,0,0,0,.4,1,3.33,3.33,0,0,1-.6-.3c-3.3-2.3-3.7-4.2-5.3-8.3-2.7-7.2-2.5-9.5-2.3-10.3v-.2a.45.45,0,0,1,0-.5,4.9,4.9,0,0,1,1.6-2.5,7.45,7.45,0,0,1,5.1-2.3h.3c2-.5,4.1-1.3,4.9-4a4.29,4.29,0,0,1-2.2,4.3c1.8-.6,2.5-1,2.9-2.4a3.59,3.59,0,0,1-1.5,3.1,4.27,4.27,0,0,0,1.9-1.1,3.31,3.31,0,0,1-1,2c1.6,1.6-.5,3.8-.3,4l.8.4a2.48,2.48,0,0,0-.6.4,8.49,8.49,0,0,0,.9.3,3.61,3.61,0,0,0-.5.4l.8.2a4.68,4.68,0,0,0-.6.5s.4.1.9.2c-.4.2-.7.4-.6.5,0-.1.5.1.9.2a2,2,0,0,0-.5.5,3.1,3.1,0,0,0,1,.2c-.4.2-.8.5-.7.5a8.49,8.49,0,0,0,.9.3,3,3,0,0,0-.7.5,4.42,4.42,0,0,1,.8.3,3.61,3.61,0,0,1-.4.5,2.07,2.07,0,0,0,.8.2,2.48,2.48,0,0,0-.6.4,8.12,8.12,0,0,0,1,.5,4.54,4.54,0,0,0-.8.3s.4.2.9.4a2.41,2.41,0,0,0-.8.3s.5.2.9.4a4.54,4.54,0,0,0-.8.3,6.13,6.13,0,0,0,.8.5c-.4.1-.7.2-.7.2a4.68,4.68,0,0,0,.6.5h-.6a7.32,7.32,0,0,1,.9.9Zm-13.9-9.7s1.3-1.8,4.7-2.1c-1.3-.7-4.4.3-4.7,2.1Zm3.9,12.6s.2-2.7,1.4-3.8c.9-.8,3.2-1.8,6.5.6-1.5-2.5-4.7-3.8-6.9-2.1-1.4,1-1.8,3.7-1,5.3Zm-3.7-10.6s1.9-2.5,6.7-3c-1.8-1.1-6.4.4-6.7,3Zm8.5-16.4a4.52,4.52,0,0,1,4.5,1.2c-1.6-.5-2.8-.2-3.4.7a1.91,1.91,0,0,1,.6-1.5c-.3-.4-1.7-.4-1.7-.4ZM39.3,54.75l.6.3h-.7l.8.4a1.21,1.21,0,0,0-.5.1s.4.3.7.5h-.6s.4.3.9.6h-.6a7.23,7.23,0,0,0,.7.4,2.18,2.18,0,0,0-.6.1s.4.3.7.5h-.6l.8.6a1.36,1.36,0,0,0-.7,0s.3.2.7.5a2.18,2.18,0,0,0-.6.1,3.73,3.73,0,0,0,.8.6c-.4,0-.8,0-.8-.1a3.07,3.07,0,0,0,.9.6c-.5-.1-1-.2-1.1-.2a5.6,5.6,0,0,0,1.2.9c-.6-.2-1.4-.4-1.4-.4a6.58,6.58,0,0,0,.9.9l-1.2-.4a8.43,8.43,0,0,0,.7.8,6.47,6.47,0,0,0-1-.3,6.58,6.58,0,0,0,.9.9,10.6,10.6,0,0,1-1.2-.5,3.23,3.23,0,0,0,.7.8l-1.2-.4s.4.5.8.9a13.32,13.32,0,0,1-1.4-.6,3.08,3.08,0,0,0,.5.7c-.5-.2-1.1-.4-1.1-.4a5.19,5.19,0,0,0,.3.5c-.5-.2-1.1-.4-1.1-.4a1.46,1.46,0,0,0,.3.5c-.5-.2-1.1-.4-1.1-.4l.2.4-1-.5a.77.77,0,0,0,.1.3c-2.7-1.2-4.2-4.6-4-7.4,0,0,.2,1.3.8,1.7a4.3,4.3,0,0,1,1.1-3.1c-.8,1.6.1,3.8.1,3.8,1.1-2.9,4.6-4.1,6-3.6a6.49,6.49,0,0,0-4.8,2.7,7.05,7.05,0,0,1,5.1-2.4Zm33.9,45c1.5-.3,2,2.8,2,2.8s.4,2,1.3,6.4c.7,3.7.6,5.2-.9,3.4s-3-11-2.4-12.6Zm-8.4-5c0,.3,5.1-.3,5.7-2.9A6.73,6.73,0,0,0,68.8,87c.1.3,1.2,3.9,0,5.3-.9,1-4,2.2-4,2.5Zm21.8,16.1c0-.4-.3-.6-.2-.6a5.2,5.2,0,0,1-.3.5.63.63,0,0,0-.1-.6,5.2,5.2,0,0,1-.3.5,1.36,1.36,0,0,0,0-.7l-.5.5c.3-.4.1-.7.2-.7a6.12,6.12,0,0,1-.6.5c.4-.4.3-.7.3-.7s-.3.2-.8.5c.4-.4.3-.8.3-.7a4,4,0,0,1-.7.5,1.08,1.08,0,0,0,.4-.8,4.54,4.54,0,0,0-.9.5h-.1c.7-.2.6-.7.6-.7a2.41,2.41,0,0,1-.8.3h-.4c.5-.2.7-.6.6-.6a6.47,6.47,0,0,1-1,.2,1,1,0,0,0,.6-.5,4.54,4.54,0,0,1-1,.1.73.73,0,0,0,.5-.5,3.14,3.14,0,0,1-.9.1.69.69,0,0,0,.5-.4,1.26,1.26,0,0,1-.8-.1,1.36,1.36,0,0,0,.6-.3,6.17,6.17,0,0,1-.9-.1l-.1-.1a.75.75,0,0,0,.6-.3,1.56,1.56,0,0,1-.9-.1c.4-.1.6-.3.5-.3a3.2,3.2,0,0,1-.7-.1v-.1c.4,0,.7-.2.6-.2a1.76,1.76,0,0,1-.8-.3v-.1a1.2,1.2,0,0,0,.7,0,3.36,3.36,0,0,1-.9-.6.72.72,0,0,0,.7,0,2.45,2.45,0,0,1-.8-.6c.4.2.8.1.7,0a6,6,0,0,1-.8-.7.83.83,0,0,0,.7.2,3.57,3.57,0,0,1-.7-.7,1,1,0,0,0,.8.2,3,3,0,0,1-.7-.8.89.89,0,0,0,.8.3,2.13,2.13,0,0,1-.6-.8.89.89,0,0,0,.8.3,2.1,2.1,0,0,1-.6-.9.89.89,0,0,0,.8.4,6.41,6.41,0,0,1-.7-.9c.3.5.9.6.8.5a2.43,2.43,0,0,1-.5-1h.2a1,1,0,0,0,.8.6s-.2-.4-.4-.9v-.2a1.24,1.24,0,0,0,.7.7,1.45,1.45,0,0,1-.3-1c.1.4.6.6.6.6a1.74,1.74,0,0,1-.1-.9l.1-.1a1.07,1.07,0,0,0,.2.6,1.66,1.66,0,0,1,1.3-1,7.1,7.1,0,0,1,3.5.7,10.4,10.4,0,0,1,2.7,2.1V101a5.2,5.2,0,0,0,.5.3,1.13,1.13,0,0,0-.4-.7,1,1,0,0,0,.5.2,1.79,1.79,0,0,0-.6-.7,1.21,1.21,0,0,0,.5-.1,1.36,1.36,0,0,0-.6-.3,4.21,4.21,0,0,0,.5-.2,6.59,6.59,0,0,0-.9-.2.84.84,0,0,0,.7-.3,4.23,4.23,0,0,1-1-.2c.6,0,.7-.4.7-.3a1.9,1.9,0,0,1-1-.1c.5-.1.6-.4.6-.4a1.69,1.69,0,0,1-.8,0c.4-.2.5-.5.4-.5a6.59,6.59,0,0,1-.9.2.83.83,0,0,0,.5-.6,1.72,1.72,0,0,1-.9.2,1,1,0,0,0,.5-.6,1.7,1.7,0,0,1-.9.3,1,1,0,0,0,.5-.6,6.36,6.36,0,0,1-.9.3.84.84,0,0,0,.4-.6,1.55,1.55,0,0,1-.8.3,1.08,1.08,0,0,0,.4-.6,2.26,2.26,0,0,1-.9.4.93.93,0,0,0,.3-.6,2.22,2.22,0,0,1-.7.4c.4-.3.3-.6.3-.6a2.19,2.19,0,0,1-.8.4,1.08,1.08,0,0,0,.3-.7,2.19,2.19,0,0,1-.8.4,3.3,3.3,0,0,0,.7-2.7,4.35,4.35,0,0,1-1.3,2c.5-.8.2-1.2.2-1.2a4.42,4.42,0,0,1-.5.9l-.1.1c.6-1.7.1-5-.7-5.7.2,3.9-.7,5.2-.8,5.3a1.21,1.21,0,0,0-.1-.5,7.86,7.86,0,0,1-.4.9c0,.1-.1.1-.1.2a.63.63,0,0,0-.1-.6,7.86,7.86,0,0,1-.4.9.63.63,0,0,0-.1-.6,7.86,7.86,0,0,1-.4.9.35.35,0,0,1-.1.2c.2-.5-.1-.9,0-.8a4.56,4.56,0,0,1-.4.8c0,.1-.1.2-.1.3h-.1a.89.89,0,0,0,0-.8,3,3,0,0,1-.5.8,2,2,0,0,0-.5.5,1,1,0,0,0,.1-.9,2.45,2.45,0,0,1-.6.8c-.1.1-.1.2-.2.2a.76.76,0,0,0,.1-.8,2.45,2.45,0,0,1-.6.8l-.3.3a1,1,0,0,0,.2-1,2.45,2.45,0,0,1-.6.8c-.1.1-.2.3-.4.4a1,1,0,0,0,.2-1,2.45,2.45,0,0,1-.6.8l-.3.3c.5-.5.3-.9.3-.9s-.1.3-.7.7l-.3.3a1,1,0,0,0,.2-.8s-.1.3-.7.7c-.1.1-.1.2-.2.2a.71.71,0,0,0,.2-.8,3.57,3.57,0,0,1-.7.7c.1.1,0,.1,0,.2.4-.5.3-.8.3-.8a3.57,3.57,0,0,1-.7.7c-.1.1-.2.2-.3.2a1.06,1.06,0,0,0,.2-.8l-.7.7c-.1.1-.1.2-.2.2a.89.89,0,0,0,.3-.8,5.92,5.92,0,0,1-.8.6c-.1.1-.2.2-.3.2.4-.4.3-.7.3-.7a5.92,5.92,0,0,1-.8.6l-.2.2c.4-.4.3-.7.3-.7a5.92,5.92,0,0,1-.8.6c-.1.1-.2.1-.3.2a.89.89,0,0,0,.3-.8,5.92,5.92,0,0,1-.8.6c-.1.1-.1.1-.2.1h-.1a.89.89,0,0,0,.3-.8s-.2.2-.7.6l-.2.2a.7.7,0,0,0,.3-.7,3.37,3.37,0,0,1-.8.5c-.1-.1-.2-.1-.4,0a1,1,0,0,0,.4-.7,3.37,3.37,0,0,1-.8.5.37.37,0,0,1-.3.1.9.9,0,0,0,.5-.7,3.37,3.37,0,0,1-.8.5c-.1.1-.3.1-.5.2.5-.3.5-.7.4-.7a3.19,3.19,0,0,1-.9.5c-.1.1-.3.1-.5.2a1.49,1.49,0,0,0,.6-.6,2.61,2.61,0,0,1-1,.3h-.3l.3-.3a5.22,5.22,0,0,1-3.3-1.1c-1.7-1.4-2.6-3.3-2.5-4.4a3.84,3.84,0,0,1,2.9-3.6c1.7-.3,7.6-1.2,10.2-2.4a95.07,95.07,0,0,1,9.7-4c2.2-.6,5-.5,10.1,2.6,0,0,6.7,3.6,9.3,4.8a4.59,4.59,0,0,1,2.2,1.9,1.75,1.75,0,0,0-.5-.1,3.23,3.23,0,0,0,.8.9,1.73,1.73,0,0,0-.7-.2,5.17,5.17,0,0,0,.6.7.69.69,0,0,0-.5,0s.3.3.8.7a2.68,2.68,0,0,0-.9-.2s.3.3.8.7a1.86,1.86,0,0,0-.8,0s.4.3,1.1.9a1.58,1.58,0,0,0-1.1-.3l.9.9a1.59,1.59,0,0,0-.9-.1l.8.8a1.59,1.59,0,0,0-.9-.1s.3.2.7.5a1.36,1.36,0,0,0-.7,0,6,6,0,0,0,.7.8,1,1,0,0,0-.7-.1s.3.3.9.8a1.59,1.59,0,0,0-.9-.1,10.52,10.52,0,0,1,1,.9c.1.1.2.2.3.2a1.73,1.73,0,0,0-1.3-.5l1,1a1.5,1.5,0,0,0-1.1-.4l1,1,.1.1a1.68,1.68,0,0,0-1.2-.4,4.85,4.85,0,0,0,1,.9,1.43,1.43,0,0,0-1-.3l.8.8c-.5-.3-1-.2-.9-.3l.9.9a1.43,1.43,0,0,0-1-.3l.7.7a1.28,1.28,0,0,0-.9-.2l.8.8c-.5-.3-1-.3-1-.2a10.52,10.52,0,0,0,.9,1c-.5-.4-1-.3-1-.4l.9,1.2a1.65,1.65,0,0,0-1-.6,2.64,2.64,0,0,0,.5.9c-.4-.3-.7-.3-.7-.2a6.41,6.41,0,0,0,.7,1.2,1.44,1.44,0,0,0-1-.6s.2.4.6,1.1a1.19,1.19,0,0,0-.9-.6,4.88,4.88,0,0,0,.4,1.1,1.14,1.14,0,0,0-.8-.5,3.69,3.69,0,0,0,.4.9c-.3-.3-.7-.4-.6-.4a7.78,7.78,0,0,0,.3.9,1.39,1.39,0,0,0-.7-.5,10.23,10.23,0,0,0,.3,1.1,1.28,1.28,0,0,0-.7-.6s.1.4.2,1c-.3-.5-.7-.6-.6-.6a4.54,4.54,0,0,1,.1,1,1.4,1.4,0,0,0-.6-.7v1a1,1,0,0,0-.5-.5v1c-.1-.5-.5-.8-.5-.7a4.53,4.53,0,0,1-.1.8c-.1-.5-.4-.7-.4-.6s-.1.4-.2,1a1.08,1.08,0,0,0-.5-.8,4.54,4.54,0,0,0-.1,1,1.19,1.19,0,0,0-.4-.8,6.59,6.59,0,0,0-.2.9,1.54,1.54,0,0,0-.2-.8,1.43,1.43,0,0,0-.3.7.88.88,0,0,0-.2-.6,4.77,4.77,0,0,0-.4.8,1.12,1.12,0,0,0-.1-.8,7.23,7.23,0,0,0-.4.7,1.73,1.73,0,0,0-.1-.7,2.48,2.48,0,0,0-.4.6,1.73,1.73,0,0,0-.1-.7,2.48,2.48,0,0,0-.4.6c.1-.4-.1-.6,0-.6a7.23,7.23,0,0,0-.4.7,1,1,0,0,0,.1-.7,6.12,6.12,0,0,1-.6.5,1,1,0,0,0,.1-.7,4.43,4.43,0,0,0-.6.5c.2-.4.1-.7.1-.6a4.43,4.43,0,0,0-.6.5c.2-.4.1-.6.1-.6a5.2,5.2,0,0,0-.5.3,1.75,1.75,0,0,0,.1-.5,1.73,1.73,0,0,0-.4.3,1.75,1.75,0,0,0,.1-.5l-.4.2c.1-.3.1-.5.1-.4a1.24,1.24,0,0,1-.3.2,1,1,0,0,0,.1-.4,1,1,0,0,0-.4.1l.2-.2a2.58,2.58,0,0,0-1.4.3c-.1.1-.3.1-.4.2a2.47,2.47,0,0,0-1.2,2.6,1.24,1.24,0,0,1-.4.9.77.77,0,0,0-.2-.5c.1-.8,0-.6-.1-.3ZM59.5,95.25a7,7,0,0,0,2.1,2.1,19.81,19.81,0,0,0,8.7,2,3.23,3.23,0,0,0,1.2,1.1,6.8,6.8,0,0,1-1.3-.4,3,3,0,0,0,1.3,1.3,12,12,0,0,0-1.4-.3s1,1.1,1.6,1.2c-.7-.2-1.6-.4-1.6-.4a6.1,6.1,0,0,0,1.6,1.3c-.7-.2-1.6-.4-1.6-.4s.9,1.1,1.6,1.2a11.2,11.2,0,0,1-1.6-.4,5.63,5.63,0,0,0,1.3,1.1,8.67,8.67,0,0,0-1.3-.3,9.35,9.35,0,0,0,1.2,1,9,9,0,0,0-1.2-.3,9.94,9.94,0,0,0,1.6,1.3c-.8-.3-1.5-.6-1.5-.6a12,12,0,0,0,1.2,1.2,11,11,0,0,1-1.2-.6,6.37,6.37,0,0,0,1.5,1.5,11.71,11.71,0,0,1-1.5-.7,8.24,8.24,0,0,0,1.5,1.6,7.64,7.64,0,0,1-1.4-.7,15.37,15.37,0,0,0,1.2,1.4c-.6-.3-1.1-.5-1.1-.6a6.4,6.4,0,0,0,1.7,1.7c-.9-.4-1.7-.8-1.7-.8a10.18,10.18,0,0,0,1.8,1.7c-.8-.4-1.7-.8-1.7-.8a8.38,8.38,0,0,0,1.7,1.7c-.8-.3-1.6-.7-1.6-.7a10.8,10.8,0,0,0,1.6,1.6l-1.4-.6a7.72,7.72,0,0,0,2,1.7l-1.8-.6a6.12,6.12,0,0,0,2.1,1.5c-1-.3-2.1-.7-2.1-.7a7.91,7.91,0,0,0,1.5,1.3,13.55,13.55,0,0,1-1.4-.5c-.1,0,.5.8,1.2,1.2l-.1.1a4.35,4.35,0,0,1-1.3-.9c-.1,0,.2.7.6,1.2a2.7,2.7,0,0,1-1.1-1.1c-.1,0,0,.7.3,1.2a4.07,4.07,0,0,1-1-1.1c-.1,0-.1.7.2,1.3-.5-.4-.9-1.2-.8-1.3-.1,0-.2.6,0,1.1a7.91,7.91,0,0,1-.5-1,5.85,5.85,0,0,0-.1,1c-.4-.5-.7-1-.6-1-.1,0-.1.6.1,1.2-.4-.5-.8-1.1-.7-1.2-.1,0-.1.5,0,1.1a7,7,0,0,1-.8-1.2c-.1,0,0,.6.1,1.2-.4-.6-.8-1.3-.8-1.3s-.1.6,0,1.2a9.32,9.32,0,0,1-.7-1.3c-.1,0-.1.5-.1,1.1-.3-.6-.5-1.1-.5-1.1s-.1.6,0,1.2a8.73,8.73,0,0,1-.5-1.3,6.27,6.27,0,0,0-.1,1.1c-.3-.6-.5-1.1-.4-1.2-.1,0-.1.5-.1,1.1a10.4,10.4,0,0,1-.5-1.2c-.1,0-.1.5-.1,1.1-.3-.7-.6-1.5-.6-1.5a8.37,8.37,0,0,0-.1,1.2,3.4,3.4,0,0,1-.4-1.5,3.3,3.3,0,0,0-.2,1.1,12,12,0,0,1-.3-1.4,3.54,3.54,0,0,0-.4,1.1,3.28,3.28,0,0,1-.2-1.5,3.54,3.54,0,0,0-.4,1.1c-.1-.8-.2-1.8-.2-1.8a6.25,6.25,0,0,0-.5,1.1c-.1-.8-.2-2-.2-2a3.59,3.59,0,0,0-.5,1.4c-.1-.9-.1-2-.1-2a4.43,4.43,0,0,0-.5.9,4.26,4.26,0,0,1,0-1.7,6.25,6.25,0,0,0-.5,1.1c0-.9.1-2.1.1-2.1a4.06,4.06,0,0,0-.6,1.1,3.48,3.48,0,0,1,.2-1.8c0-.1-.3.3-.6.9a7.7,7.7,0,0,1,.1-1.9,3.79,3.79,0,0,0-.7,1.1c0-.9.1-2.1.1-2.1a8.77,8.77,0,0,0-.8,1.4v-.4a5.35,5.35,0,0,1,.3-1.8c0-.1-.5.4-.9.9v-.2a9.11,9.11,0,0,1,.3-1.6,4.32,4.32,0,0,0-1,1c0-.1.1-.1.1-.2a4.93,4.93,0,0,1,.5-1.6,3.4,3.4,0,0,0-1,.8c.2-.6.5-1.6.5-1.6s-.6.3-1,.8a10.42,10.42,0,0,1,.5-1.6c0-.1-.6.3-.9.8.1-.5,0-1.8.1-2.1a38.1,38.1,0,0,1,6.5-3Z"/></g><g id="Page-1"><path id="Stroke-1" class="cls-4" d="M31.9,26.35a56.36,56.36,0,0,1,78-14.13"/><path id="Fill-3" class="cls-5" d="M36.88,138.6a4.65,4.65,0,0,1-2-3.7l2.15-.5a3.08,3.08,0,0,0,1.1,2.46,1.23,1.23,0,0,0,1.9-.34c.4-.59.35-1.31-.44-2.74-1-1.83-1.39-3.24-.24-4.94a3.27,3.27,0,0,1,4.73-.82,3.94,3.94,0,0,1,1.81,3.37l-2,.4c-.15-1.09-.31-1.54-1-2a1.07,1.07,0,0,0-1.57.24c-.42.62-.32,1.24.39,2.6,1.13,2.16,1.43,3.39.27,5.13a3.42,3.42,0,0,1-5.06.86"/><polygon id="Fill-5" class="cls-5" points="51.55 134.54 46.98 144.35 44.9 143.35 49.47 133.54 47.06 132.38 48.01 130.35 54.9 133.68 53.95 135.71 51.55 134.54"/><path id="Fill-7" class="cls-5" d="M58.5,142.11c.08-1,.23-2.54.33-3.18-.28.61-.92,1.86-1.46,2.8l-.79,1.4,1.8.56ZM58,148.65l.2-2.76L55.5,145l-1.36,2.4-2.24-.69,6.87-11.41,2.13.66-.61,13.34Z"/><path id="Fill-9" class="cls-5" d="M68.18,139.85l-.93-.12-.42,3.37,1,.14a1.48,1.48,0,0,0,1.85-1.47c.13-1.09-.28-1.76-1.55-1.92Zm.37,10.2-1.28-4.84-.69-.09-.57,4.6-2.12-.27,1.5-12.1,3.15.41A3.47,3.47,0,0,1,71.85,142a3.44,3.44,0,0,1-2.41,3l1.41,5.29Z"/><polygon id="Fill-11" class="cls-5" points="80.13 139.63 80.45 150.28 78.06 150.35 77.74 139.7 74.97 139.78 74.9 137.57 82.83 137.35 82.9 139.56 80.13 139.63"/><path id="Fill-13" class="cls-5" d="M94.21,137.71c-1.29.38-1.36,2-.62,4.65s1.72,4,3,3.62,1.35-2,.6-4.65-1.72-4-3-3.62m3,10.47c-2.81.83-4.79-1.61-5.8-5.14s-.58-6.71,2.22-7.54,4.78,1.61,5.78,5.14.58,6.71-2.21,7.54"/><path id="Fill-15" class="cls-5" d="M108.9,143.37l-1.95,1L98.9,134l2.06-1,3.67,5.1c.56.79,1.59,2.22,1.89,2.71-.17-.55-.61-2.32-.84-3.24l-1.52-6.18,2-1Z"/><polygon id="Fill-17" class="cls-5" points="115.32 139.35 107.9 129.04 113.34 125.35 114.61 127.12 111.07 129.53 112.64 131.7 115.02 130.09 116.27 131.82 113.89 133.44 115.94 136.3 119.63 133.79 120.9 135.56 115.32 139.35"/><path id="Fill-19" class="cls-5" d="M119.73,123.4l-.71.71,2.43,2.58.8-.8a1.62,1.62,0,0,0,0-2.53,1.55,1.55,0,0,0-2.56,0Zm8.42,6.42-4.71-2.12-.53.53,3.31,3.52-1.6,1.6-8.72-9.25,2.39-2.39c1.75-1.75,3.77-1.9,5.58,0a3.73,3.73,0,0,1,.87,4l5.17,2.3Z"/><polyline id="Stroke-21" class="cls-4" points="43.9 27.2 30.04 28.35 28.9 14.35"/></g></g></g></svg>