<svg xmlns="http://www.w3.org/2000/svg" viewBox="0 0 403.99 384.87"><defs><style>.cls-1,.cls-2,.cls-8{fill:#fff;}.cls-1{opacity:0.2;}.cls-3{fill:#fa8f00;}.cls-4{fill:#cc6733;}.cls-11,.cls-16,.cls-5{fill:#7a0088;}.cls-6{fill:#e44473;}.cls-7{fill:#dc0939;}.cls-12,.cls-8{stroke:#dc0939;}.cls-10,.cls-12,.cls-13,.cls-16,.cls-8{stroke-linecap:round;stroke-linejoin:round;}.cls-10,.cls-11,.cls-12,.cls-13,.cls-16,.cls-8{stroke-width:2px;}.cls-9{fill:#0e0846;}.cls-10,.cls-12,.cls-13,.cls-14{fill:none;}.cls-10{stroke:#0e0846;opacity:0.25;}.cls-11,.cls-16{stroke:#7a0088;}.cls-11{stroke-miterlimit:10;}.cls-12{opacity:0.5;}.cls-13{stroke:#fa8f00;}.cls-15{fill:#28a9ec;}.cls-17{fill:#dedede;}</style></defs><title>positivity</title><g id="Layer_2" data-name="Layer 2"><g id="Layer_1-2" data-name="Layer 1"><circle class="cls-1" cx="186.57" cy="198.3" r="186.57"/><circle class="cls-2" cx="186.57" cy="198.3" r="171.47"/><path class="cls-3" d="M159.48,42.67h0A18.73,18.73,0,0,1,178.22,61.4v39.32L140.75,71.94V61.4A18.73,18.73,0,0,1,159.48,42.67Z"/><path class="cls-3" d="M53.25,246.22a41.76,41.76,0,0,1,4.27,16.65c.52,11.69-5.43,22.39-14.33,29.44a171.47,171.47,0,0,0,308-46.09Z"/><rect class="cls-4" x="209.33" y="160.8" width="8.35" height="30.57" rx="3" ry="3" transform="translate(-45.74 272.95) rotate(-60)"/><path class="cls-5" d="M352.75,13.11l6.12-3.35a4,4,0,0,0,1.58-1.58l3.35-6.12a4,4,0,0,1,7,0l3.35,6.12a4,4,0,0,0,1.58,1.58l6.12,3.35a4,4,0,0,1,0,7l-6.12,3.35A4,4,0,0,0,374.12,25l-3.35,6.12a4,4,0,0,1-7,0L360.45,25a4,4,0,0,0-1.58-1.58l-6.12-3.35A4,4,0,0,1,352.75,13.11Z"/><path class="cls-6" d="M388.42,67.76l3.06-1.67a2,2,0,0,0,.79-.79l1.67-3.06a2,2,0,0,1,3.49,0l1.67,3.06a2,2,0,0,0,.79.79L403,67.76a2,2,0,0,1,0,3.49l-3.06,1.67a2,2,0,0,0-.79.79l-1.67,3.06a2,2,0,0,1-3.49,0l-1.67-3.06a2,2,0,0,0-.79-.79l-3.06-1.67A2,2,0,0,1,388.42,67.76Z"/><path class="cls-7" d="M362.92,95.64l2.16-1.18a1.4,1.4,0,0,0,.56-.56l1.18-2.16a1.4,1.4,0,0,1,2.46,0l1.18,2.16a1.4,1.4,0,0,0,.56.56l2.16,1.18a1.4,1.4,0,0,1,0,2.46L371,99.29a1.4,1.4,0,0,0-.56.56L369.28,102a1.4,1.4,0,0,1-2.46,0l-1.18-2.16a1.4,1.4,0,0,0-.56-.56l-2.16-1.18A1.4,1.4,0,0,1,362.92,95.64Z"/><path class="cls-8" d="M414.61,11.73"/><path class="cls-3" d="M61.34,116.36V101.88c0-31.75,23-57.49,51.31-57.49h14.18c28.34,0,51.31,25.74,51.31,57.49v12.67"/><circle class="cls-4" cx="119.74" cy="131.14" r="58.4"/><circle class="cls-2" cx="138.72" cy="152.22" r="8.27"/><circle class="cls-9" cx="98.81" cy="115.72" r="5.99"/><circle class="cls-9" cx="140.6" cy="115.72" r="5.99"/><circle class="cls-4" cx="65.44" cy="121.71" r="11.52"/><path class="cls-10" d="M116.48,125.34s10,11,3.26,15.69"/><polygon class="cls-3" points="72.63 127.26 65.44 127.26 65.44 103.94 72.63 90.01 72.63 127.26"/><polygon class="cls-3" points="167.14 127.26 174.33 127.26 174.33 103.94 167.14 90.01 167.14 127.26"/><path class="cls-4" d="M169,252.19c0-16.65,10.63-29.92,25.11-35.37a66.77,66.77,0,0,0-42.51-15.2h-46.9a67.06,67.06,0,0,0-67.06,67.06v14.57A171.49,171.49,0,0,0,169.9,369C169,330,169,291.11,169,252.19Z"/><rect class="cls-4" x="104.85" y="167.27" width="32.56" height="43.33"/><polyline class="cls-11" points="319.96 133.68 174.38 149.73 160.21 114.73 283.57 21.01"/><rect class="cls-5" x="156.09" y="103.9" width="22.42" height="56.66" rx="8.05" ry="8.05" transform="translate(-37.41 72.49) rotate(-22.05)"/><path class="cls-12" d="M344.73,125.79"/><line class="cls-13" x1="322.37" y1="26.59" x2="332.52" y2="9.68"/><line class="cls-13" x1="344.23" y1="67.48" x2="374.89" y2="55.06"/><line class="cls-13" x1="350.29" y1="118.98" x2="361.08" y2="118.98"/><ellipse class="cls-14" cx="315.08" cy="81.23" rx="21.47" ry="63.68" transform="matrix(0.95, -0.32, 0.32, 0.95, -9.44, 104.83)"/><path class="cls-2" d="M290.19,70.63a18.28,18.28,0,0,1,12.62,34.31"/><path class="cls-10" d="M294.43,28.78s12.21,9.31,18.87,28.31"/><path class="cls-10" d="M310.52,107.95s5.71,13.61,12.69,17.22"/><path class="cls-15" d="M151.55,201.62h-5c0,10.78-11,19.51-24.63,19.51-13.43,0-24.33-8.52-24.6-19.11a67.06,67.06,0,0,0-59.78,66.66v14.57h0l.26.46a171.45,171.45,0,0,0,136.57,85.62V250.8l44.18,17.88A67.06,67.06,0,0,0,151.55,201.62Z"/><path class="cls-8" d="M203,330"/><path class="cls-8" d="M187.6,297"/><path class="cls-4" d="M138.39,335.93H89.81a67.16,67.16,0,0,1,0-134.31h31.94l-1.24,39.5H89.81a27.65,27.65,0,0,0,0,55.31h53.14"/><path class="cls-4" d="M49,250.7s35.49,14,10.75,49.46"/><path class="cls-10" d="M48.23,268.11s11.33,9.16,1.15,22.35"/><path class="cls-7" d="M140.16,297.07"/><path class="cls-15" d="M97.37,202c0-.13,0-.26,0-.4H89.81a67.13,67.13,0,0,0-67,67.16l45.73-8.23c4.18-9.92,12.81-5.92,24.19-5.92l40.48-7.31-6.64-26.54a31,31,0,0,1-4.58.35C108.54,221.13,97.64,212.61,97.37,202Z"/><path class="cls-4" d="M217.62,269.78a42.92,42.92,0,0,1-22.48-6.35l-21.11-13,20.4-33.21,21.11,13a4,4,0,0,0,6-3.38V178.16l39-13.93v62.61a42.93,42.93,0,0,1-42.94,42.94Z"/><path class="cls-5" d="M269.08,166.77l-52.51,16.66a5.8,5.8,0,0,1-7.28-3.77l-10.22-32.23a5.8,5.8,0,1,1,11.06-3.51l8.47,26.7L260,157.47l-8.47-26.7a5.8,5.8,0,0,1,11.06-3.51l10.22,32.23A5.8,5.8,0,0,1,269.08,166.77Z"/><rect class="cls-4" x="220.22" y="160.05" width="8.35" height="17.88" rx="3" ry="3" transform="translate(-39.05 71.47) rotate(-16.67)"/><rect class="cls-4" x="229.87" y="157.16" width="8.35" height="17.88" rx="3" ry="3" transform="translate(-37.81 74.12) rotate(-16.67)"/><rect class="cls-4" x="239.51" y="154.27" width="8.35" height="17.88" rx="3" ry="3" transform="translate(-36.58 76.76) rotate(-16.67)"/><rect class="cls-4" x="249.16" y="151.38" width="8.35" height="17.88" rx="3" ry="3" transform="translate(-35.34 79.41) rotate(-16.67)"/><path class="cls-4" d="M229.78,296.25h-21a10.14,10.14,0,0,1-10.14-10.14v-8.28a12.35,12.35,0,0,0-8.74-11.33c-2.05-.6-8.2-1.37-7.89,2.24a6.66,6.66,0,0,0,.75,2.18c3,6.35,7.65,25.32-4.42,25.32H166.82V333.1h5.9a18.58,18.58,0,0,1,10.6,3.32l7.31,5.08a18.58,18.58,0,0,0,10.6,3.32h2.47a5.66,5.66,0,0,0,1,.1h16.69a5.66,5.66,0,0,0,5.66-5.66v-.85a5.66,5.66,0,0,0-5.66-5.66h2.79a5.66,5.66,0,0,0,5.66-5.66v-.85a5.66,5.66,0,0,0-5.66-5.66H227a5.66,5.66,0,0,0,5.66-5.66v-.85a5.66,5.66,0,0,0-5.66-5.66h2.79a5.66,5.66,0,0,0,5.66-5.66v-.85A5.66,5.66,0,0,0,229.78,296.25Z"/><rect class="cls-16" x="130.99" y="292.12" width="36.88" height="46.1" rx="3.31" ry="3.31"/><path class="cls-3" d="M156.19,302.9l-6.34.08a.64.64,0,0,0-.53.29l-9.17,14.22a.64.64,0,0,0,.55,1l6.21-.08a.64.64,0,0,1,.55,1L142,328a.64.64,0,0,0,1,.82l14.66-13.29a.64.64,0,0,0-.44-1.12l-6.92.09a.64.64,0,0,1-.53-1l7-9.58A.64.64,0,0,0,156.19,302.9Z"/><path class="cls-4" d="M194.43,217.25s27.15-4.74,22.86,25.75"/><path class="cls-7" d="M326.49,70.49C315.26,37.16,297.05,13.21,285.81,17c-9.18,3.09-10.87,23.74-5.05,49.37l.42,0A23.65,23.65,0,0,1,296,108.46c10.24,19.84,22.24,32,30.49,29.23C337.71,133.9,337.72,103.82,326.49,70.49Z"/><path class="cls-9" d="M304.85,90a23.66,23.66,0,0,0-23.66-23.66l-.42,0a182.57,182.57,0,0,0,5,17.83A175.07,175.07,0,0,0,296,108.46,23.61,23.61,0,0,0,304.85,90Z"/><path class="cls-3" d="M80.1,43.27h0A18.73,18.73,0,0,0,61.36,62v39.32L98.83,72.54V62A18.73,18.73,0,0,0,80.1,43.27Z"/><path class="cls-3" d="M98.29,23.34h13.12a16.74,16.74,0,0,1,16.74,16.74v41.6a0,0,0,0,1,0,0H81.56a0,0,0,0,1,0,0V40.07A16.74,16.74,0,0,1,98.29,23.34Z"/><path class="cls-3" d="M126.91,23.34H140a16.74,16.74,0,0,1,16.74,16.74v41.6a0,0,0,0,1,0,0h-46.6a0,0,0,0,1,0,0V40.07A16.74,16.74,0,0,1,126.91,23.34Z"/><rect class="cls-17" x="61.34" y="65.61" width="116.88" height="20.05"/><rect class="cls-7" x="61.36" y="72.26" width="116.78" height="5.95"/></g></g></svg>